<svg host="65bd71144e" xmlns="http://www.w3.org/2000/svg" xmlns:xlink="http://www.w3.org/1999/xlink" version="1.1" width="565px" height="511px" viewBox="-0.5 -0.5 565 511" content="&lt;mxfile&gt;&lt;diagram id=&quot;dRdAtxq2-KJvCcS7W86T&quot; name=&quot;ページ1&quot;&gt;7Z1Rb+I4EMc/Da9VnEAojwft7Z2uq6u6K93u08pLXLBkYmRMC/30Zyd2EjCt7ELdYLKqtHjiDPH8J78kEyf0ksli84XB5fwrzRDpxVG26SU3vTgGIAHiP2nZlpb+dVwaZgxnqlNt+IZfkDJGyrrGGVrtdOSUEo6Xu8YpzXM05Ts2yBh93u32SMnuty7hDBmGb1NITOt/OOPz0nodD2v7XwjP5vqbQToqlyyg7qxGsprDjD43TMltL5kwSnn5abGZICKDp+NSrvfnK0urDWMo5zYrqLg/QbJWYxMx43DKV2r7+FYPWmzqUn7k8Lc0jVccMq60SSJhKNbEOWLCAIo2IXC5wkX30jLHJLuDW7rm2pFujR/xBmUPpTSyr1DpTjiTTen8UTj/pjZGLoYEz3LxeSoGKr9xzNBKbMsdXHHVwwyFis4TYhxtGiYVmi+ILhBnW9FFLa1kUnkaj1T7uVYdXCvbvKF4EikjVJk2q3zXYogPSo/D2iSGNm9r8iATaTynDL9IJYiKXFOnov2MFwTmIkNhtmca02KPLOKNCZlQQqWYOc2RoafslDG6/A7ZDHFlWFKc82LIg7H4E0GYRFeD3kBs60S0Qd0Wf7I74xOarzgTeSN9ICHfM5ISjjldKqcEPWr/TIVYfv5NOaeLV8WOrcXeas1stT1e2r4h7f0/r4orRsUxJA+CZDCfkVKKAmywluKAXgcjWEVtP5z7OxgVkXskBZvmOMtQfjDKiXWUG2FNHKOqnNUBcPYGiYBEDrnI8HWerQypqu20Um9gqPf3zSerp3FY9h2vlnCK89lduWa6J+/gA+TdvL4TDU4qt5W70+qddiC2AnF0GhCnHkE8tJfWz46MMqz92VM4tQ5xQBS+Nk9dhesZZdtfokvLcXxqXUPG76jDr0/82l/jHI9ffUF/5vwdWcc4IP4CYGi3XiEWDHztRQ0Zvml38uuVviD2iN80kNPfizz/TQ+cAIs9TkYlCP46qBoygEfmYbYD8EcCeOARwKPYXtwWA3hkf2clIACPzBs0U4aE9+wXDITBDsIGzWDzfk3H4I9k8LVPBpu3c86SwX3rKIfEYPPydL3MwmKwvbAhMxg4nCp1DD6ewVVt1ksd2GGuS4sZDOyjHBCDgcPZ0VmR10HOkMmr78d35PVE3r7PErBDeanF5K1y9KLIm7aufHSq2q+9nEGTt5sC7Je8Q5/kbd1p0/vIe5FTgNNTFo3Ap5F3QZ8a21A8QtFsUw6b25ghgprtvXw5KjdCxjgwk0VNVcSoe85GLOnrS0jFYdvyb6XlUbWHboaL3UH2FbEH1mp/woM2wJzhcqZP2oCLnOQCzEkuoT5r4yBw0AfLbrr3Mdc87jj2+biNntx45tc8VY5eFItjs1RYPXGTwwVqO5ZPrm3IGK6KJx2G/WDY52M3Lq8WaDGGHQp8IWHYrBuGNu3QQdigGexQZOwYfAIGe334xuW1Am2GsH2UQ4KwWVcKbd6hg7BBQ9isQMnHXLu6fSPyjmX7amrhUfjs6kTHlO2rtG5l2V77OP+y/WW+GyAxS0Whlu279wSU3rt60VFTlZxx7LNsn4RRL6py9LJYbNaLive0hFOyd9A1aAR35SK/CPZZsk/CqBYlF1ktSsxqEVpATALBb1coKrybhaIOvx+JX6/V+sSh3NRm/tpHOSD+6gfqGuJxFAp97RUNmb4jh1fZdfQ9BX29vifL4djaYvpWSXpR9B2Zh87QJqw4CBsyhEFkHmg7Cn8ohX2+KQtEYbwsoE7Ti+IwiGJDvtAmrbhIGzKJ+xZ7anG/s2QsiCWF+YKo/Qjl2R/yd/JE8/bhBTH6nX6F+VaTuV62gHn2byE32mD+Q65+FYGhav+U4l5FqW7fbPRuKxvbRuMeMSyGV8yNKWy5GOqPYvV4oNs/mwtrX0VLOzuQEmrgdM2mauT6monr40CvmnKKsp2f/nsTCFWy7TyTqo0MEcjxE9rZijeS514eh+q0rKrLevrFcC9hygGptepkMRwle47ifUdlFAxH78k6EzCesi7aybjB2/lW59bw9Lmlh9zq3BrupUT/vbkVg6tRP6r/DXZzNh5e6bP/o7NNNOvfxSy7178umtz+Dw==&lt;/diagram&gt;&lt;/mxfile&gt;">
    <defs>
        <clipPath id="mx-clip-190-240-30-30-0">
            <rect x="190" y="240" width="30" height="30"/>
        </clipPath>
        <clipPath id="mx-clip-226-240-144-30-0">
            <rect x="226" y="240" width="144" height="30"/>
        </clipPath>
        <clipPath id="mx-clip-226-270-144-30-0">
            <rect x="226" y="270" width="144" height="30"/>
        </clipPath>
        <clipPath id="mx-clip-226-300-144-30-0">
            <rect x="226" y="300" width="144" height="30"/>
        </clipPath>
        <clipPath id="mx-clip-226-330-144-30-0">
            <rect x="226" y="330" width="144" height="30"/>
        </clipPath>
        <clipPath id="mx-clip-226-360-144-30-0">
            <rect x="226" y="360" width="144" height="30"/>
        </clipPath>
        <clipPath id="mx-clip-226-390-144-30-0">
            <rect x="226" y="390" width="144" height="30"/>
        </clipPath>
        <clipPath id="mx-clip-384-30-30-30-0">
            <rect x="384" y="30" width="30" height="30"/>
        </clipPath>
        <clipPath id="mx-clip-420-30-144-30-0">
            <rect x="420" y="30" width="144" height="30"/>
        </clipPath>
        <clipPath id="mx-clip-420-60-144-30-0">
            <rect x="420" y="60" width="144" height="30"/>
        </clipPath>
        <clipPath id="mx-clip-420-90-144-30-0">
            <rect x="420" y="90" width="144" height="30"/>
        </clipPath>
        <clipPath id="mx-clip-420-120-144-30-0">
            <rect x="420" y="120" width="144" height="30"/>
        </clipPath>
        <clipPath id="mx-clip-0-30-30-30-0">
            <rect x="0" y="30" width="30" height="30"/>
        </clipPath>
        <clipPath id="mx-clip-36-30-144-30-0">
            <rect x="36" y="30" width="144" height="30"/>
        </clipPath>
        <clipPath id="mx-clip-36-60-144-30-0">
            <rect x="36" y="60" width="144" height="30"/>
        </clipPath>
        <clipPath id="mx-clip-36-90-144-30-0">
            <rect x="36" y="90" width="144" height="30"/>
        </clipPath>
        <clipPath id="mx-clip-36-120-144-30-0">
            <rect x="36" y="120" width="144" height="30"/>
        </clipPath>
        <clipPath id="mx-clip-36-150-144-30-0">
            <rect x="36" y="150" width="144" height="30"/>
        </clipPath>
        <clipPath id="mx-clip-36-180-144-30-0">
            <rect x="36" y="180" width="144" height="30"/>
        </clipPath>
    </defs>
    <g>
        <path d="M 190 240 L 190 210 L 370 210 L 370 240" fill="rgb(255, 255, 255)" stroke="rgb(0, 0, 0)" stroke-miterlimit="10" pointer-events="all"/>
        <path d="M 190 240 L 190 510 L 370 510 L 370 240" fill="none" stroke="rgb(0, 0, 0)" stroke-miterlimit="10" pointer-events="none"/>
        <path d="M 190 240 L 370 240" fill="none" stroke="rgb(0, 0, 0)" stroke-miterlimit="10" pointer-events="none"/>
        <path d="M 220 240 L 220 270 L 220 300 L 220 330 L 220 360 L 220 390 L 220 420 L 220 450 L 220 480 L 220 510" fill="none" stroke="rgb(0, 0, 0)" stroke-miterlimit="10" pointer-events="none"/>
        <g fill="rgb(0, 0, 0)" font-family="Helvetica" font-weight="bold" pointer-events="none" text-anchor="middle" font-size="12px">
            <text x="279.5" y="229.5">
                contacts
            </text>
        </g>
        <path d="M 190 240 M 370 240 M 370 270 L 190 270" fill="none" stroke="rgb(0, 0, 0)" stroke-linecap="square" stroke-miterlimit="10" pointer-events="none"/>
        <path d="M 190 240 M 220 240 M 220 270 M 190 270" fill="none" stroke="rgb(0, 0, 0)" stroke-linecap="square" stroke-miterlimit="10" pointer-events="none"/>
        <g fill="rgb(0, 0, 0)" font-family="Helvetica" font-weight="bold" pointer-events="none" clip-path="url(#mx-clip-190-240-30-30-0)" text-anchor="middle" font-size="12px">
            <text x="204.5" y="259.5">
                PK
            </text>
        </g>
        <path d="M 220 240 M 370 240 M 370 270 M 220 270" fill="none" stroke="rgb(0, 0, 0)" stroke-linecap="square" stroke-miterlimit="10" pointer-events="none"/>
        <g fill="rgb(0, 0, 0)" font-family="Helvetica" font-weight="bold" text-decoration="underline" pointer-events="none" clip-path="url(#mx-clip-226-240-144-30-0)" font-size="12px">
            <text x="227.5" y="259.5">
                ID
            </text>
        </g>
        <path d="M 190 270 M 220 270 M 220 300 M 190 300" fill="none" stroke="rgb(0, 0, 0)" stroke-linecap="square" stroke-miterlimit="10" pointer-events="none"/>
        <path d="M 220 270 M 370 270 M 370 300 M 220 300" fill="none" stroke="rgb(0, 0, 0)" stroke-linecap="square" stroke-miterlimit="10" pointer-events="none"/>
        <g fill="rgb(0, 0, 0)" font-family="Helvetica" pointer-events="none" clip-path="url(#mx-clip-226-270-144-30-0)" font-size="12px">
            <text x="227.5" y="289.5">
                category_id
            </text>
        </g>
        <path d="M 190 300 M 220 300 M 220 330 M 190 330" fill="none" stroke="rgb(0, 0, 0)" stroke-linecap="square" stroke-miterlimit="10" pointer-events="none"/>
        <path d="M 220 300 M 370 300 M 370 330 M 220 330" fill="none" stroke="rgb(0, 0, 0)" stroke-linecap="square" stroke-miterlimit="10" pointer-events="none"/>
        <g fill="rgb(0, 0, 0)" font-family="Helvetica" pointer-events="none" clip-path="url(#mx-clip-226-300-144-30-0)" font-size="12px">
            <text x="227.5" y="319.5">
                user_id
            </text>
        </g>
        <path d="M 190 330 M 220 330 M 220 360 M 190 360" fill="none" stroke="rgb(0, 0, 0)" stroke-linecap="square" stroke-miterlimit="10" pointer-events="none"/>
        <path d="M 220 330 M 370 330 M 370 360 M 220 360" fill="none" stroke="rgb(0, 0, 0)" stroke-linecap="square" stroke-miterlimit="10" pointer-events="none"/>
        <g fill="rgb(0, 0, 0)" font-family="Helvetica" pointer-events="none" clip-path="url(#mx-clip-226-330-144-30-0)" font-size="12px">
            <text x="227.5" y="349.5">
                content
            </text>
        </g>
        <path d="M 190 360 M 220 360 M 220 390 M 190 390" fill="none" stroke="rgb(0, 0, 0)" stroke-linecap="square" stroke-miterlimit="10" pointer-events="none"/>
        <path d="M 220 360 M 370 360 M 370 390 M 220 390" fill="none" stroke="rgb(0, 0, 0)" stroke-linecap="square" stroke-miterlimit="10" pointer-events="none"/>
        <g fill="rgb(0, 0, 0)" font-family="Helvetica" pointer-events="none" clip-path="url(#mx-clip-226-360-144-30-0)" font-size="12px">
            <text x="227.5" y="379.5">
                created_at
            </text>
        </g>
        <path d="M 190 390 M 220 390 M 220 420 M 190 420" fill="none" stroke="rgb(0, 0, 0)" stroke-linecap="square" stroke-miterlimit="10" pointer-events="none"/>
        <path d="M 220 390 M 370 390 M 370 420 M 220 420" fill="none" stroke="rgb(0, 0, 0)" stroke-linecap="square" stroke-miterlimit="10" pointer-events="none"/>
        <g fill="rgb(0, 0, 0)" font-family="Helvetica" pointer-events="none" clip-path="url(#mx-clip-226-390-144-30-0)" font-size="12px">
            <text x="227.5" y="409.5">
                updated_at
            </text>
        </g>
        <path d="M 190 420 M 220 420 M 220 450 M 190 450" fill="none" stroke="rgb(0, 0, 0)" stroke-linecap="square" stroke-miterlimit="10" pointer-events="none"/>
        <path d="M 220 420 M 370 420 M 370 450 M 220 450" fill="none" stroke="rgb(0, 0, 0)" stroke-linecap="square" stroke-miterlimit="10" pointer-events="none"/>
        <path d="M 190 450 M 220 450 M 220 480 M 190 480" fill="none" stroke="rgb(0, 0, 0)" stroke-linecap="square" stroke-miterlimit="10" pointer-events="none"/>
        <path d="M 220 450 M 370 450 M 370 480 M 220 480" fill="none" stroke="rgb(0, 0, 0)" stroke-linecap="square" stroke-miterlimit="10" pointer-events="none"/>
        <path d="M 190 480 M 220 480 M 220 510 M 190 510" fill="none" stroke="rgb(0, 0, 0)" stroke-linecap="square" stroke-miterlimit="10" pointer-events="none"/>
        <path d="M 220 480 M 370 480 M 370 510 M 220 510" fill="none" stroke="rgb(0, 0, 0)" stroke-linecap="square" stroke-miterlimit="10" pointer-events="none"/>
        <path d="M 384 30 L 384 0 L 564 0 L 564 30" fill="rgb(255, 255, 255)" stroke="rgb(0, 0, 0)" stroke-miterlimit="10" pointer-events="none"/>
        <path d="M 384 30 L 384 150 L 564 150 L 564 30" fill="none" stroke="rgb(0, 0, 0)" stroke-miterlimit="10" pointer-events="none"/>
        <path d="M 384 30 L 564 30" fill="none" stroke="rgb(0, 0, 0)" stroke-miterlimit="10" pointer-events="none"/>
        <path d="M 414 30 L 414 60 L 414 90 L 414 120 L 414 150" fill="none" stroke="rgb(0, 0, 0)" stroke-miterlimit="10" pointer-events="none"/>
        <g fill="rgb(0, 0, 0)" font-family="Helvetica" font-weight="bold" pointer-events="none" text-anchor="middle" font-size="12px">
            <text x="473.5" y="19.5">
                categories
            </text>
        </g>
        <path d="M 384 30 M 564 30 M 564 60 L 384 60" fill="none" stroke="rgb(0, 0, 0)" stroke-linecap="square" stroke-miterlimit="10" pointer-events="none"/>
        <path d="M 384 30 M 414 30 M 414 60 M 384 60" fill="none" stroke="rgb(0, 0, 0)" stroke-linecap="square" stroke-miterlimit="10" pointer-events="none"/>
        <g fill="rgb(0, 0, 0)" font-family="Helvetica" font-weight="bold" pointer-events="none" clip-path="url(#mx-clip-384-30-30-30-0)" text-anchor="middle" font-size="12px">
            <text x="398.5" y="49.5">
                PK
            </text>
        </g>
        <path d="M 414 30 M 564 30 M 564 60 M 414 60" fill="none" stroke="rgb(0, 0, 0)" stroke-linecap="square" stroke-miterlimit="10" pointer-events="none"/>
        <g fill="rgb(0, 0, 0)" font-family="Helvetica" font-weight="bold" text-decoration="underline" pointer-events="none" clip-path="url(#mx-clip-420-30-144-30-0)" font-size="12px">
            <text x="421.5" y="49.5">
                ID
            </text>
        </g>
        <path d="M 384 60 M 414 60 M 414 90 M 384 90" fill="none" stroke="rgb(0, 0, 0)" stroke-linecap="square" stroke-miterlimit="10" pointer-events="none"/>
        <path d="M 414 60 M 564 60 M 564 90 M 414 90" fill="none" stroke="rgb(0, 0, 0)" stroke-linecap="square" stroke-miterlimit="10" pointer-events="none"/>
        <g fill="rgb(0, 0, 0)" font-family="Helvetica" pointer-events="none" clip-path="url(#mx-clip-420-60-144-30-0)" font-size="12px">
            <text x="421.5" y="79.5">
                category_name
            </text>
        </g>
        <path d="M 384 90 M 414 90 M 414 120 M 384 120" fill="none" stroke="rgb(0, 0, 0)" stroke-linecap="square" stroke-miterlimit="10" pointer-events="none"/>
        <path d="M 414 90 M 564 90 M 564 120 M 414 120" fill="none" stroke="rgb(0, 0, 0)" stroke-linecap="square" stroke-miterlimit="10" pointer-events="none"/>
        <g fill="rgb(0, 0, 0)" font-family="Helvetica" pointer-events="none" clip-path="url(#mx-clip-420-90-144-30-0)" font-size="12px">
            <text x="421.5" y="109.5">
                created_at
            </text>
        </g>
        <path d="M 384 120 M 414 120 M 414 150 M 384 150" fill="none" stroke="rgb(0, 0, 0)" stroke-linecap="square" stroke-miterlimit="10" pointer-events="none"/>
        <path d="M 414 120 M 564 120 M 564 150 M 414 150" fill="none" stroke="rgb(0, 0, 0)" stroke-linecap="square" stroke-miterlimit="10" pointer-events="none"/>
        <g fill="rgb(0, 0, 0)" font-family="Helvetica" pointer-events="none" clip-path="url(#mx-clip-420-120-144-30-0)" font-size="12px">
            <text x="421.5" y="139.5">
                updated_at
            </text>
        </g>
        <path d="M 0 30 L 0 0 L 180 0 L 180 30" fill="rgb(255, 255, 255)" stroke="rgb(0, 0, 0)" stroke-miterlimit="10" pointer-events="none"/>
        <path d="M 0 30 L 0 210 L 180 210 L 180 30" fill="none" stroke="rgb(0, 0, 0)" stroke-miterlimit="10" pointer-events="none"/>
        <path d="M 0 30 L 180 30" fill="none" stroke="rgb(0, 0, 0)" stroke-miterlimit="10" pointer-events="none"/>
        <path d="M 30 30 L 30 60 L 30 90 L 30 120 L 30 150 L 30 180 L 30 210" fill="none" stroke="rgb(0, 0, 0)" stroke-miterlimit="10" pointer-events="none"/>
        <g fill="rgb(0, 0, 0)" font-family="Helvetica" font-weight="bold" pointer-events="none" text-anchor="middle" font-size="12px">
            <text x="89.5" y="19.5">
                users
            </text>
        </g>
        <path d="M 0 30 M 180 30 M 180 60 L 0 60" fill="none" stroke="rgb(0, 0, 0)" stroke-linecap="square" stroke-miterlimit="10" pointer-events="none"/>
        <path d="M 0 30 M 30 30 M 30 60 M 0 60" fill="none" stroke="rgb(0, 0, 0)" stroke-linecap="square" stroke-miterlimit="10" pointer-events="none"/>
        <g fill="rgb(0, 0, 0)" font-family="Helvetica" font-weight="bold" pointer-events="none" clip-path="url(#mx-clip-0-30-30-30-0)" text-anchor="middle" font-size="12px">
            <text x="14.5" y="49.5">
                PK
            </text>
        </g>
        <path d="M 30 30 M 180 30 M 180 60 M 30 60" fill="none" stroke="rgb(0, 0, 0)" stroke-linecap="square" stroke-miterlimit="10" pointer-events="none"/>
        <g fill="rgb(0, 0, 0)" font-family="Helvetica" font-weight="bold" text-decoration="underline" pointer-events="none" clip-path="url(#mx-clip-36-30-144-30-0)" font-size="12px">
            <text x="37.5" y="49.5">
                ID
            </text>
        </g>
        <path d="M 0 60 M 30 60 M 30 90 M 0 90" fill="none" stroke="rgb(0, 0, 0)" stroke-linecap="square" stroke-miterlimit="10" pointer-events="none"/>
        <path d="M 30 60 M 180 60 M 180 90 M 30 90" fill="none" stroke="rgb(0, 0, 0)" stroke-linecap="square" stroke-miterlimit="10" pointer-events="none"/>
        <g fill="rgb(0, 0, 0)" font-family="Helvetica" pointer-events="none" clip-path="url(#mx-clip-36-60-144-30-0)" font-size="12px">
            <text x="37.5" y="79.5">
                user_name
            </text>
        </g>
        <path d="M 0 90 M 30 90 M 30 120 M 0 120" fill="none" stroke="rgb(0, 0, 0)" stroke-linecap="square" stroke-miterlimit="10" pointer-events="none"/>
        <path d="M 30 90 M 180 90 M 180 120 M 30 120" fill="none" stroke="rgb(0, 0, 0)" stroke-linecap="square" stroke-miterlimit="10" pointer-events="none"/>
        <g fill="rgb(0, 0, 0)" font-family="Helvetica" pointer-events="none" clip-path="url(#mx-clip-36-90-144-30-0)" font-size="12px">
            <text x="37.5" y="109.5">
                email
            </text>
        </g>
        <path d="M 0 120 M 30 120 M 30 150 M 0 150" fill="none" stroke="rgb(0, 0, 0)" stroke-linecap="square" stroke-miterlimit="10" pointer-events="none"/>
        <path d="M 30 120 M 180 120 M 180 150 M 30 150" fill="none" stroke="rgb(0, 0, 0)" stroke-linecap="square" stroke-miterlimit="10" pointer-events="none"/>
        <g fill="rgb(0, 0, 0)" font-family="Helvetica" pointer-events="none" clip-path="url(#mx-clip-36-120-144-30-0)" font-size="12px">
            <text x="37.5" y="139.5">
                tel
            </text>
        </g>
        <path d="M 0 150 M 30 150 M 30 180 M 0 180" fill="none" stroke="rgb(0, 0, 0)" stroke-linecap="square" stroke-miterlimit="10" pointer-events="none"/>
        <path d="M 30 150 M 180 150 M 180 180 M 30 180" fill="none" stroke="rgb(0, 0, 0)" stroke-linecap="square" stroke-miterlimit="10" pointer-events="none"/>
        <g fill="rgb(0, 0, 0)" font-family="Helvetica" pointer-events="none" clip-path="url(#mx-clip-36-150-144-30-0)" font-size="12px">
            <text x="37.5" y="169.5">
                created_at
            </text>
        </g>
        <path d="M 0 180 M 30 180 M 30 210 M 0 210" fill="none" stroke="rgb(0, 0, 0)" stroke-linecap="square" stroke-miterlimit="10" pointer-events="none"/>
        <path d="M 30 180 M 180 180 M 180 210 M 30 210" fill="none" stroke="rgb(0, 0, 0)" stroke-linecap="square" stroke-miterlimit="10" pointer-events="none"/>
        <g fill="rgb(0, 0, 0)" font-family="Helvetica" pointer-events="none" clip-path="url(#mx-clip-36-180-144-30-0)" font-size="12px">
            <text x="37.5" y="199.5">
                updated_at
            </text>
        </g>
        <path d="M 183.06 122.01 L 235 210" fill="none" stroke="rgb(0, 0, 0)" stroke-miterlimit="10" pointer-events="none"/>
        <path d="M 188.54 123.42 L 181.65 127.49 M 190.57 126.87 L 183.68 130.93" fill="none" stroke="rgb(0, 0, 0)" stroke-miterlimit="10" pointer-events="none"/>
        <ellipse cx="228.9" cy="199.67" rx="3" ry="3" fill="#ffffff" stroke="rgb(0, 0, 0)" pointer-events="none"/>
        <path d="M 238.44 207.97 L 230.93 203.11 L 231.56 212.03" fill="none" stroke="rgb(0, 0, 0)" stroke-miterlimit="10" pointer-events="none"/>
        <path d="M 384 105 L 325 210" fill="none" stroke="rgb(0, 0, 0)" stroke-miterlimit="10" pointer-events="none"/>
        <path d="M 385.53 110.45 L 378.55 106.53 M 383.57 113.93 L 376.59 110.01" fill="none" stroke="rgb(0, 0, 0)" stroke-miterlimit="10" pointer-events="none"/>
        <ellipse cx="330.88" cy="199.54" rx="3" ry="3" fill="#ffffff" stroke="rgb(0, 0, 0)" pointer-events="none"/>
        <path d="M 328.49 211.96 L 328.92 203.03 L 321.51 208.04" fill="none" stroke="rgb(0, 0, 0)" stroke-miterlimit="10" pointer-events="none"/>
    </g>
</svg>