<svg host="65bd71144e" xmlns="http://www.w3.org/2000/svg" xmlns:xlink="http://www.w3.org/1999/xlink" version="1.1" width="565px" height="511px" viewBox="-0.5 -0.5 565 511" content="&lt;mxfile&gt;&lt;diagram id=&quot;dRdAtxq2-KJvCcS7W86T&quot; name=&quot;ページ1&quot;&gt;7Z1db+I4FIZ/DbdVPiCUy4V2Zlfb0VbtSDtzVXmIC5ZMjBwzhf76tRM7AUyYZEi97UlG1Sg+OCY+7/GT5MQOg3C22n7maL38wmJMB4EXbwfhzSAIoiiS/yvDLjcMrye5YcFJnJv80vBIXrE2etq6ITFODyoKxqgg60PjnCUJnosDG+KcvRxWe2b08FvXaIEtw+McUdv6L4nFMrdeB+PS/icmi6X5Zj/S/VshU1n3JF2imL3smcLbQTjjjIl8a7WdYap8Z/yS7/ep4tPiwDhORJ0dgnyHn4hudN+kzwSai1Qfn9iZTstDXatNgX4o0zQViAutTehJQ7YnSTCXBj8rU4rWKcmq55YlofEd2rGNMA2Z0vSZbHH8kEuj6kqV7mRjqqgaf5aNP+qDUR8jShaJ3J7LjqpvnHKcymO5Q6nQNXTPMBd4W+kdv/C5jFXMVljwnayidyhk0nEaTHT5pVTdv9a25Z7ioaeNSEfaomi7FENuaD1OaxNa2pzX5EEF0nTJOHlVSlDtuX2dsvILWVGUyAhF8ZFpyrIRmfmbUDpjlCkxE5ZgS09VKeZs/RXxBRbasGYkEVmXR1P5J50w865Gg5E81pks+2VZ/qnqXMxYkgou40a1gaV8L1hJOBVsrRul+Nm0z7WL1fYPJgRbNRE7OC32zmhWV9vLpR1a0t7/XSmu7IIgiD5IkqFkQXMpMrChUooTep30YOG1Y3ceDzAmnflMMzYtSRzjpK6Xw9Ne3nNr2NCrurHSAY1bQ1RCIkFCRvgmiVNLquI4a6k3stT76+Z/Vs/gMK87TddoTpLFXb5ndCTv6A3k3VYPolGrctdqrl29ox7EtUDstQPiyCGIx/WldTOQcUxMexdROAJP4Wv70lU2vZCjDqdPstI7B3LbykIG8KQHsEsA17/LuRzA5pYeHoEn4Ans+5Z2mxRz0PStUBUyfX07SdTj9w3x6wcu+dsgy/Sx+OtXeBkSgO08UoJWGCx8qySFTN+owQVST98W6DtySN/IvoICQt/IO+1lQPSN7OsivEKEgsVvlaag8ds/hXOL32uX+LWvn6DgF/5TuMh+DCcwYPh28cFb/+TNKXyLbKwT+MJ99gb/4Vt04umbHHHKBWAB3MUHbw3uT3sAtwDgoUMAT+z7VyAAnlRM6wQE4Il9XzrnWLYePyG4DK4SFjSDG9yk9gxugcFjlwy2b2KhMHgIn8H27elmHYNncIWwkBns28O0nGx4nsZH5AW6UmZoHkVriNbN4hZaXjSHoU8T1TtD1hd7dPYU6XKpjG+nieCslfHhZ4p8O1PUodUyVQKDPln207VbvmH5BY5dLpgxcxPh3bD48CdsB3Y6V1/G7p5gTxzs4LRtMzB7DDvCsMtlM01eDvCxMFyVnYOEYTuj24HcfZWwoBncIL3bM7gFBjtdO9PkxQAfDMIVXoYEYTuv1IHkfZWwoCFsZ6CyZarnSTzoRN7eeL5h2r6YKHgRPvs8Uctp+zzS30Xa3rQBMm3fgbX9oZ0q6lDavovL/MM+X9T2PKPzOHaZtg/B5otC+Pmi0M4XqQtY2Cn7Kl1BI7hPF7lFsMuUfQg2WxTCzxaFdrZIvSMcLHw7mCYK7TRRD9+3hK/TXH3YINn0wehb4WVA9DWr4g7ecyUISxAnYgeXwhXKQqbwpMGq8J7CbVDY5fuuJg3OsR+LwnncgqbwxD6FdmDaSpWwkCHse/YJt6fwm1LY5WuvfA/sawd15ILmsO8FlnwdmLpSKS1kEg9rjNTsqWfOWD9QFBYrqscRTuI/1O/dyeLtwyvm7Cv7gpKdIXP52Qol8T+Z3HhLxDe1+5Xnj3X5uxL3yotM+WZrhq0q7PYK95gT2b1shkxmS2RXv2W7ByNT/r7/YdlWVjKN5b3EsfVDfEczW6Qn2IbPdS2TwxHmxDCoM5+4ON0drEw1Ro6pvNf8eXgcZ4LnXp2HyrAscsxmEsb4KGDy49d7lcFiNRQeNRQcN5R32mrod6LOBoyjqPMOIm50Pt7K2Bo7iC3jg/cUW+OjkBj+bmwF/tVk6JX/RocxG4yvzNX/xdEmi+XvW+bVyx8JDW//Aw==&lt;/diagram&gt;&lt;/mxfile&gt;">
    <defs>
        <clipPath id="mx-clip-190-240-30-30-0">
            <rect x="190" y="240" width="30" height="30"/>
        </clipPath>
        <clipPath id="mx-clip-226-240-144-30-0">
            <rect x="226" y="240" width="144" height="30"/>
        </clipPath>
        <clipPath id="mx-clip-226-270-144-30-0">
            <rect x="226" y="270" width="144" height="30"/>
        </clipPath>
        <clipPath id="mx-clip-226-300-144-30-0">
            <rect x="226" y="300" width="144" height="30"/>
        </clipPath>
        <clipPath id="mx-clip-226-330-144-30-0">
            <rect x="226" y="330" width="144" height="30"/>
        </clipPath>
        <clipPath id="mx-clip-226-360-144-30-0">
            <rect x="226" y="360" width="144" height="30"/>
        </clipPath>
        <clipPath id="mx-clip-226-390-144-30-0">
            <rect x="226" y="390" width="144" height="30"/>
        </clipPath>
        <clipPath id="mx-clip-226-420-144-30-0">
            <rect x="226" y="420" width="144" height="30"/>
        </clipPath>
        <clipPath id="mx-clip-226-450-144-30-0">
            <rect x="226" y="450" width="144" height="30"/>
        </clipPath>
        <clipPath id="mx-clip-226-480-144-30-0">
            <rect x="226" y="480" width="144" height="30"/>
        </clipPath>
        <clipPath id="mx-clip-384-30-30-30-0">
            <rect x="384" y="30" width="30" height="30"/>
        </clipPath>
        <clipPath id="mx-clip-420-30-144-30-0">
            <rect x="420" y="30" width="144" height="30"/>
        </clipPath>
        <clipPath id="mx-clip-420-60-144-30-0">
            <rect x="420" y="60" width="144" height="30"/>
        </clipPath>
        <clipPath id="mx-clip-420-90-144-30-0">
            <rect x="420" y="90" width="144" height="30"/>
        </clipPath>
        <clipPath id="mx-clip-420-120-144-30-0">
            <rect x="420" y="120" width="144" height="30"/>
        </clipPath>
        <clipPath id="mx-clip-0-30-30-30-0">
            <rect x="0" y="30" width="30" height="30"/>
        </clipPath>
        <clipPath id="mx-clip-36-30-144-30-0">
            <rect x="36" y="30" width="144" height="30"/>
        </clipPath>
        <clipPath id="mx-clip-36-60-144-30-0">
            <rect x="36" y="60" width="144" height="30"/>
        </clipPath>
        <clipPath id="mx-clip-36-90-144-30-0">
            <rect x="36" y="90" width="144" height="30"/>
        </clipPath>
        <clipPath id="mx-clip-36-120-144-30-0">
            <rect x="36" y="120" width="144" height="30"/>
        </clipPath>
        <clipPath id="mx-clip-36-150-144-30-0">
            <rect x="36" y="150" width="144" height="30"/>
        </clipPath>
        <clipPath id="mx-clip-36-180-144-30-0">
            <rect x="36" y="180" width="144" height="30"/>
        </clipPath>
    </defs>
    <g>
        <path d="M 190 240 L 190 210 L 370 210 L 370 240" fill="rgb(255, 255, 255)" stroke="rgb(0, 0, 0)" stroke-miterlimit="10" pointer-events="all"/>
        <path d="M 190 240 L 190 510 L 370 510 L 370 240" fill="none" stroke="rgb(0, 0, 0)" stroke-miterlimit="10" pointer-events="none"/>
        <path d="M 190 240 L 370 240" fill="none" stroke="rgb(0, 0, 0)" stroke-miterlimit="10" pointer-events="none"/>
        <path d="M 220 240 L 220 270 L 220 300 L 220 330 L 220 360 L 220 390 L 220 420 L 220 450 L 220 480 L 220 510" fill="none" stroke="rgb(0, 0, 0)" stroke-miterlimit="10" pointer-events="none"/>
        <g fill="rgb(0, 0, 0)" font-family="Helvetica" font-weight="bold" pointer-events="none" text-anchor="middle" font-size="12px">
            <text x="279.5" y="229.5">
                contacts
            </text>
        </g>
        <path d="M 190 240 M 370 240 M 370 270 L 190 270" fill="none" stroke="rgb(0, 0, 0)" stroke-linecap="square" stroke-miterlimit="10" pointer-events="none"/>
        <path d="M 190 240 M 220 240 M 220 270 M 190 270" fill="none" stroke="rgb(0, 0, 0)" stroke-linecap="square" stroke-miterlimit="10" pointer-events="none"/>
        <g fill="rgb(0, 0, 0)" font-family="Helvetica" font-weight="bold" pointer-events="none" clip-path="url(#mx-clip-190-240-30-30-0)" text-anchor="middle" font-size="12px">
            <text x="204.5" y="259.5">
                PK
            </text>
        </g>
        <path d="M 220 240 M 370 240 M 370 270 M 220 270" fill="none" stroke="rgb(0, 0, 0)" stroke-linecap="square" stroke-miterlimit="10" pointer-events="none"/>
        <g fill="rgb(0, 0, 0)" font-family="Helvetica" font-weight="bold" text-decoration="underline" pointer-events="none" clip-path="url(#mx-clip-226-240-144-30-0)" font-size="12px">
            <text x="227.5" y="259.5">
                ID
            </text>
        </g>
        <path d="M 190 270 M 220 270 M 220 300 M 190 300" fill="none" stroke="rgb(0, 0, 0)" stroke-linecap="square" stroke-miterlimit="10" pointer-events="none"/>
        <path d="M 220 270 M 370 270 M 370 300 M 220 300" fill="none" stroke="rgb(0, 0, 0)" stroke-linecap="square" stroke-miterlimit="10" pointer-events="none"/>
        <g fill="rgb(0, 0, 0)" font-family="Helvetica" pointer-events="none" clip-path="url(#mx-clip-226-270-144-30-0)" font-size="12px">
            <text x="227.5" y="289.5">
                categories_id
            </text>
        </g>
        <path d="M 190 300 M 220 300 M 220 330 M 190 330" fill="none" stroke="rgb(0, 0, 0)" stroke-linecap="square" stroke-miterlimit="10" pointer-events="none"/>
        <path d="M 220 300 M 370 300 M 370 330 M 220 330" fill="none" stroke="rgb(0, 0, 0)" stroke-linecap="square" stroke-miterlimit="10" pointer-events="none"/>
        <g fill="rgb(0, 0, 0)" font-family="Helvetica" pointer-events="none" clip-path="url(#mx-clip-226-300-144-30-0)" font-size="12px">
            <text x="227.5" y="319.5">
                users_id
            </text>
        </g>
        <path d="M 190 330 M 220 330 M 220 360 M 190 360" fill="none" stroke="rgb(0, 0, 0)" stroke-linecap="square" stroke-miterlimit="10" pointer-events="none"/>
        <path d="M 220 330 M 370 330 M 370 360 M 220 360" fill="none" stroke="rgb(0, 0, 0)" stroke-linecap="square" stroke-miterlimit="10" pointer-events="none"/>
        <g fill="rgb(0, 0, 0)" font-family="Helvetica" pointer-events="none" clip-path="url(#mx-clip-226-330-144-30-0)" font-size="12px">
            <text x="227.5" y="349.5">
                name
            </text>
        </g>
        <path d="M 190 360 M 220 360 M 220 390 M 190 390" fill="none" stroke="rgb(0, 0, 0)" stroke-linecap="square" stroke-miterlimit="10" pointer-events="none"/>
        <path d="M 220 360 M 370 360 M 370 390 M 220 390" fill="none" stroke="rgb(0, 0, 0)" stroke-linecap="square" stroke-miterlimit="10" pointer-events="none"/>
        <g fill="rgb(0, 0, 0)" font-family="Helvetica" pointer-events="none" clip-path="url(#mx-clip-226-360-144-30-0)" font-size="12px">
            <text x="227.5" y="379.5">
                email
            </text>
        </g>
        <path d="M 190 390 M 220 390 M 220 420 M 190 420" fill="none" stroke="rgb(0, 0, 0)" stroke-linecap="square" stroke-miterlimit="10" pointer-events="none"/>
        <path d="M 220 390 M 370 390 M 370 420 M 220 420" fill="none" stroke="rgb(0, 0, 0)" stroke-linecap="square" stroke-miterlimit="10" pointer-events="none"/>
        <g fill="rgb(0, 0, 0)" font-family="Helvetica" pointer-events="none" clip-path="url(#mx-clip-226-390-144-30-0)" font-size="12px">
            <text x="227.5" y="409.5">
                tel
            </text>
        </g>
        <path d="M 190 420 M 220 420 M 220 450 M 190 450" fill="none" stroke="rgb(0, 0, 0)" stroke-linecap="square" stroke-miterlimit="10" pointer-events="none"/>
        <path d="M 220 420 M 370 420 M 370 450 M 220 450" fill="none" stroke="rgb(0, 0, 0)" stroke-linecap="square" stroke-miterlimit="10" pointer-events="none"/>
        <g fill="rgb(0, 0, 0)" font-family="Helvetica" pointer-events="none" clip-path="url(#mx-clip-226-420-144-30-0)" font-size="12px">
            <text x="227.5" y="439.5">
                content
            </text>
        </g>
        <path d="M 190 450 M 220 450 M 220 480 M 190 480" fill="none" stroke="rgb(0, 0, 0)" stroke-linecap="square" stroke-miterlimit="10" pointer-events="none"/>
        <path d="M 220 450 M 370 450 M 370 480 M 220 480" fill="none" stroke="rgb(0, 0, 0)" stroke-linecap="square" stroke-miterlimit="10" pointer-events="none"/>
        <g fill="rgb(0, 0, 0)" font-family="Helvetica" pointer-events="none" clip-path="url(#mx-clip-226-450-144-30-0)" font-size="12px">
            <text x="227.5" y="469.5">
                created_at
            </text>
        </g>
        <path d="M 190 480 M 220 480 M 220 510 M 190 510" fill="none" stroke="rgb(0, 0, 0)" stroke-linecap="square" stroke-miterlimit="10" pointer-events="none"/>
        <path d="M 220 480 M 370 480 M 370 510 M 220 510" fill="none" stroke="rgb(0, 0, 0)" stroke-linecap="square" stroke-miterlimit="10" pointer-events="none"/>
        <g fill="rgb(0, 0, 0)" font-family="Helvetica" pointer-events="none" clip-path="url(#mx-clip-226-480-144-30-0)" font-size="12px">
            <text x="227.5" y="499.5">
                updated_at
            </text>
        </g>
        <path d="M 384 30 L 384 0 L 564 0 L 564 30" fill="rgb(255, 255, 255)" stroke="rgb(0, 0, 0)" stroke-miterlimit="10" pointer-events="none"/>
        <path d="M 384 30 L 384 150 L 564 150 L 564 30" fill="none" stroke="rgb(0, 0, 0)" stroke-miterlimit="10" pointer-events="none"/>
        <path d="M 384 30 L 564 30" fill="none" stroke="rgb(0, 0, 0)" stroke-miterlimit="10" pointer-events="none"/>
        <path d="M 414 30 L 414 60 L 414 90 L 414 120 L 414 150" fill="none" stroke="rgb(0, 0, 0)" stroke-miterlimit="10" pointer-events="none"/>
        <g fill="rgb(0, 0, 0)" font-family="Helvetica" font-weight="bold" pointer-events="none" text-anchor="middle" font-size="12px">
            <text x="473.5" y="19.5">
                categories
            </text>
        </g>
        <path d="M 384 30 M 564 30 M 564 60 L 384 60" fill="none" stroke="rgb(0, 0, 0)" stroke-linecap="square" stroke-miterlimit="10" pointer-events="none"/>
        <path d="M 384 30 M 414 30 M 414 60 M 384 60" fill="none" stroke="rgb(0, 0, 0)" stroke-linecap="square" stroke-miterlimit="10" pointer-events="none"/>
        <g fill="rgb(0, 0, 0)" font-family="Helvetica" font-weight="bold" pointer-events="none" clip-path="url(#mx-clip-384-30-30-30-0)" text-anchor="middle" font-size="12px">
            <text x="398.5" y="49.5">
                PK
            </text>
        </g>
        <path d="M 414 30 M 564 30 M 564 60 M 414 60" fill="none" stroke="rgb(0, 0, 0)" stroke-linecap="square" stroke-miterlimit="10" pointer-events="none"/>
        <g fill="rgb(0, 0, 0)" font-family="Helvetica" font-weight="bold" text-decoration="underline" pointer-events="none" clip-path="url(#mx-clip-420-30-144-30-0)" font-size="12px">
            <text x="421.5" y="49.5">
                ID
            </text>
        </g>
        <path d="M 384 60 M 414 60 M 414 90 M 384 90" fill="none" stroke="rgb(0, 0, 0)" stroke-linecap="square" stroke-miterlimit="10" pointer-events="none"/>
        <path d="M 414 60 M 564 60 M 564 90 M 414 90" fill="none" stroke="rgb(0, 0, 0)" stroke-linecap="square" stroke-miterlimit="10" pointer-events="none"/>
        <g fill="rgb(0, 0, 0)" font-family="Helvetica" pointer-events="none" clip-path="url(#mx-clip-420-60-144-30-0)" font-size="12px">
            <text x="421.5" y="79.5">
                category_name
            </text>
        </g>
        <path d="M 384 90 M 414 90 M 414 120 M 384 120" fill="none" stroke="rgb(0, 0, 0)" stroke-linecap="square" stroke-miterlimit="10" pointer-events="none"/>
        <path d="M 414 90 M 564 90 M 564 120 M 414 120" fill="none" stroke="rgb(0, 0, 0)" stroke-linecap="square" stroke-miterlimit="10" pointer-events="none"/>
        <g fill="rgb(0, 0, 0)" font-family="Helvetica" pointer-events="none" clip-path="url(#mx-clip-420-90-144-30-0)" font-size="12px">
            <text x="421.5" y="109.5">
                created_at
            </text>
        </g>
        <path d="M 384 120 M 414 120 M 414 150 M 384 150" fill="none" stroke="rgb(0, 0, 0)" stroke-linecap="square" stroke-miterlimit="10" pointer-events="none"/>
        <path d="M 414 120 M 564 120 M 564 150 M 414 150" fill="none" stroke="rgb(0, 0, 0)" stroke-linecap="square" stroke-miterlimit="10" pointer-events="none"/>
        <g fill="rgb(0, 0, 0)" font-family="Helvetica" pointer-events="none" clip-path="url(#mx-clip-420-120-144-30-0)" font-size="12px">
            <text x="421.5" y="139.5">
                updated_at
            </text>
        </g>
        <path d="M 0 30 L 0 0 L 180 0 L 180 30" fill="rgb(255, 255, 255)" stroke="rgb(0, 0, 0)" stroke-miterlimit="10" pointer-events="none"/>
        <path d="M 0 30 L 0 210 L 180 210 L 180 30" fill="none" stroke="rgb(0, 0, 0)" stroke-miterlimit="10" pointer-events="none"/>
        <path d="M 0 30 L 180 30" fill="none" stroke="rgb(0, 0, 0)" stroke-miterlimit="10" pointer-events="none"/>
        <path d="M 30 30 L 30 60 L 30 90 L 30 120 L 30 150 L 30 180 L 30 210" fill="none" stroke="rgb(0, 0, 0)" stroke-miterlimit="10" pointer-events="none"/>
        <g fill="rgb(0, 0, 0)" font-family="Helvetica" font-weight="bold" pointer-events="none" text-anchor="middle" font-size="12px">
            <text x="89.5" y="19.5">
                users
            </text>
        </g>
        <path d="M 0 30 M 180 30 M 180 60 L 0 60" fill="none" stroke="rgb(0, 0, 0)" stroke-linecap="square" stroke-miterlimit="10" pointer-events="none"/>
        <path d="M 0 30 M 30 30 M 30 60 M 0 60" fill="none" stroke="rgb(0, 0, 0)" stroke-linecap="square" stroke-miterlimit="10" pointer-events="none"/>
        <g fill="rgb(0, 0, 0)" font-family="Helvetica" font-weight="bold" pointer-events="none" clip-path="url(#mx-clip-0-30-30-30-0)" text-anchor="middle" font-size="12px">
            <text x="14.5" y="49.5">
                PK
            </text>
        </g>
        <path d="M 30 30 M 180 30 M 180 60 M 30 60" fill="none" stroke="rgb(0, 0, 0)" stroke-linecap="square" stroke-miterlimit="10" pointer-events="none"/>
        <g fill="rgb(0, 0, 0)" font-family="Helvetica" font-weight="bold" text-decoration="underline" pointer-events="none" clip-path="url(#mx-clip-36-30-144-30-0)" font-size="12px">
            <text x="37.5" y="49.5">
                ID
            </text>
        </g>
        <path d="M 0 60 M 30 60 M 30 90 M 0 90" fill="none" stroke="rgb(0, 0, 0)" stroke-linecap="square" stroke-miterlimit="10" pointer-events="none"/>
        <path d="M 30 60 M 180 60 M 180 90 M 30 90" fill="none" stroke="rgb(0, 0, 0)" stroke-linecap="square" stroke-miterlimit="10" pointer-events="none"/>
        <g fill="rgb(0, 0, 0)" font-family="Helvetica" pointer-events="none" clip-path="url(#mx-clip-36-60-144-30-0)" font-size="12px">
            <text x="37.5" y="79.5">
                user_name
            </text>
        </g>
        <path d="M 0 90 M 30 90 M 30 120 M 0 120" fill="none" stroke="rgb(0, 0, 0)" stroke-linecap="square" stroke-miterlimit="10" pointer-events="none"/>
        <path d="M 30 90 M 180 90 M 180 120 M 30 120" fill="none" stroke="rgb(0, 0, 0)" stroke-linecap="square" stroke-miterlimit="10" pointer-events="none"/>
        <g fill="rgb(0, 0, 0)" font-family="Helvetica" pointer-events="none" clip-path="url(#mx-clip-36-90-144-30-0)" font-size="12px">
            <text x="37.5" y="109.5">
                age
            </text>
        </g>
        <path d="M 0 120 M 30 120 M 30 150 M 0 150" fill="none" stroke="rgb(0, 0, 0)" stroke-linecap="square" stroke-miterlimit="10" pointer-events="none"/>
        <path d="M 30 120 M 180 120 M 180 150 M 30 150" fill="none" stroke="rgb(0, 0, 0)" stroke-linecap="square" stroke-miterlimit="10" pointer-events="none"/>
        <g fill="rgb(0, 0, 0)" font-family="Helvetica" pointer-events="none" clip-path="url(#mx-clip-36-120-144-30-0)" font-size="12px">
            <text x="37.5" y="139.5">
                nationarity
            </text>
        </g>
        <path d="M 0 150 M 30 150 M 30 180 M 0 180" fill="none" stroke="rgb(0, 0, 0)" stroke-linecap="square" stroke-miterlimit="10" pointer-events="none"/>
        <path d="M 30 150 M 180 150 M 180 180 M 30 180" fill="none" stroke="rgb(0, 0, 0)" stroke-linecap="square" stroke-miterlimit="10" pointer-events="none"/>
        <g fill="rgb(0, 0, 0)" font-family="Helvetica" pointer-events="none" clip-path="url(#mx-clip-36-150-144-30-0)" font-size="12px">
            <text x="37.5" y="169.5">
                created_at
            </text>
        </g>
        <path d="M 0 180 M 30 180 M 30 210 M 0 210" fill="none" stroke="rgb(0, 0, 0)" stroke-linecap="square" stroke-miterlimit="10" pointer-events="none"/>
        <path d="M 30 180 M 180 180 M 180 210 M 30 210" fill="none" stroke="rgb(0, 0, 0)" stroke-linecap="square" stroke-miterlimit="10" pointer-events="none"/>
        <g fill="rgb(0, 0, 0)" font-family="Helvetica" pointer-events="none" clip-path="url(#mx-clip-36-180-144-30-0)" font-size="12px">
            <text x="37.5" y="199.5">
                updated_at
            </text>
        </g>
        <path d="M 183.06 122.01 L 235 210" fill="none" stroke="rgb(0, 0, 0)" stroke-miterlimit="10" pointer-events="none"/>
        <path d="M 188.54 123.42 L 181.65 127.49 M 190.57 126.87 L 183.68 130.93" fill="none" stroke="rgb(0, 0, 0)" stroke-miterlimit="10" pointer-events="none"/>
        <ellipse cx="228.9" cy="199.67" rx="3" ry="3" fill="#ffffff" stroke="rgb(0, 0, 0)" pointer-events="none"/>
        <path d="M 238.44 207.97 L 230.93 203.11 L 231.56 212.03" fill="none" stroke="rgb(0, 0, 0)" stroke-miterlimit="10" pointer-events="none"/>
        <path d="M 384 105 L 325 210" fill="none" stroke="rgb(0, 0, 0)" stroke-miterlimit="10" pointer-events="none"/>
        <path d="M 385.53 110.45 L 378.55 106.53 M 383.57 113.93 L 376.59 110.01" fill="none" stroke="rgb(0, 0, 0)" stroke-miterlimit="10" pointer-events="none"/>
        <ellipse cx="330.88" cy="199.54" rx="3" ry="3" fill="#ffffff" stroke="rgb(0, 0, 0)" pointer-events="none"/>
        <path d="M 328.49 211.96 L 328.92 203.03 L 321.51 208.04" fill="none" stroke="rgb(0, 0, 0)" stroke-miterlimit="10" pointer-events="none"/>
    </g>
</svg>